<?xml version="1.0" standalone="no"?>
<!DOCTYPE svg PUBLIC "-//W3C//DTD SVG 20010904//EN"
 "http://www.w3.org/TR/2001/REC-SVG-20010904/DTD/svg10.dtd">
<svg version="1.0" xmlns="http://www.w3.org/2000/svg"
 width="700.000000pt" height="700.000000pt" viewBox="0 0 700.000000 700.000000"
 preserveAspectRatio="xMidYMid meet">
<metadata>
Created by potrace 1.11, written by Peter Selinger 2001-2013
</metadata>
<g transform="translate(0.000000,700.000000) scale(0.100000,-0.100000)"
fill="#000000" stroke="none">
<path d="M2390 5484 c-16 -5 -132 -128 -131 -138 2 -7 -16 -30 -41 -54 -10 -9
-18 -21 -18 -26 0 -5 -10 -25 -22 -45 -13 -20 -23 -38 -23 -41 -1 -3 -9 -20
-18 -37 -10 -18 -15 -33 -12 -33 3 0 -4 -18 -15 -40 -11 -21 -20 -48 -20 -59
0 -11 -4 -22 -9 -26 -6 -3 -8 -14 -6 -25 2 -12 0 -18 -6 -15 -5 4 -9 -4 -10
-17 0 -13 -2 -32 -5 -43 -2 -11 -6 -46 -9 -78 -3 -33 -7 -63 -10 -67 -3 -5 -1
-11 4 -14 4 -3 5 -24 1 -46 -4 -22 -4 -40 -1 -40 4 0 6 -15 6 -32 -1 -18 2
-46 7 -62 4 -16 9 -44 10 -63 1 -18 6 -33 10 -33 4 0 7 -3 6 -7 0 -5 1 -15 4
-23 23 -68 27 -84 21 -93 -3 -6 -1 -7 5 -4 6 5 13 -8 17 -33 4 -22 11 -40 16
-40 6 0 7 -4 4 -10 -3 -5 -1 -10 4 -10 6 0 11 -3 10 -7 -2 -15 13 -53 21 -53
4 0 11 -11 14 -24 3 -14 12 -31 20 -38 14 -15 10 -21 -88 -128 -18 -19 -32
-38 -32 -42 1 -3 -11 -20 -27 -37 -15 -17 -24 -31 -21 -31 4 0 0 -8 -8 -17
-18 -22 -63 -115 -60 -125 1 -5 -3 -8 -10 -8 -6 0 -9 -3 -5 -6 3 -3 -3 -26
-14 -51 -10 -25 -17 -49 -13 -54 3 -5 0 -9 -5 -9 -6 0 -11 -12 -11 -26 0 -14
-3 -23 -8 -20 -4 2 -8 -12 -9 -32 -4 -74 -9 -111 -16 -118 -4 -4 -2 -13 4 -21
8 -8 8 -13 1 -13 -12 0 -11 -18 2 -39 6 -10 5 -12 -2 -7 -15 9 -16 -6 -1 -21
8 -8 8 -13 0 -17 -8 -5 -8 -13 0 -28 9 -16 8 -19 -2 -13 -8 6 -10 4 -4 -4 4
-7 9 -32 11 -54 7 -75 9 -92 17 -104 5 -8 3 -13 -5 -13 -10 0 -10 -2 -1 -8 7
-4 14 -17 16 -27 1 -11 6 -26 10 -32 5 -7 5 -17 2 -23 -3 -5 -2 -10 3 -10 4 0
15 -22 22 -50 7 -27 16 -50 20 -50 3 0 6 -9 7 -20 1 -11 9 -27 18 -36 9 -9 19
-29 22 -45 3 -16 9 -26 14 -23 5 3 9 -1 9 -8 0 -13 45 -83 71 -111 8 -9 28
-32 44 -53 17 -20 37 -43 45 -51 101 -92 127 -113 134 -106 3 4 6 2 6 -4 0 -5
16 -18 35 -29 19 -10 35 -22 35 -26 0 -5 7 -8 15 -8 18 0 57 -20 67 -35 4 -5
8 -7 8 -2 0 4 10 1 23 -8 13 -8 27 -12 30 -8 4 3 7 1 7 -5 0 -7 9 -12 20 -12
11 0 20 -4 20 -8 0 -5 6 -9 13 -10 14 -1 51 -10 55 -12 1 -2 5 -3 10 -4 4 -1
12 -5 19 -9 6 -4 23 -8 37 -9 14 -1 26 -7 26 -12 0 -5 3 -7 6 -4 3 4 20 2 37
-3 27 -8 154 -22 209 -23 9 0 14 -4 12 -8 -3 -4 0 -8 5 -8 6 0 11 4 11 9 0 11
33 9 42 -3 4 -6 13 -4 22 3 9 8 16 9 16 4 0 -11 29 -11 48 1 7 4 12 2 12 -6 0
-9 3 -9 10 2 7 12 10 12 10 1 0 -8 6 -11 15 -7 8 3 22 9 32 13 9 4 14 2 10 -3
-3 -5 3 -10 13 -10 10 0 16 4 14 8 -7 11 4 10 28 -3 15 -8 19 -8 14 0 -10 16
96 14 113 -1 9 -8 11 -8 8 -2 -5 8 2 11 18 10 14 0 25 -3 25 -6 0 -3 18 -5 39
-5 22 0 38 -2 36 -5 -2 -3 5 -12 17 -19 16 -10 19 -10 12 1 -4 7 12 -6 34 -30
23 -24 42 -47 42 -52 0 -6 5 -10 11 -10 5 0 7 -4 4 -10 -3 -5 -3 -16 2 -22 4
-7 8 -29 9 -48 1 -19 3 -35 4 -35 1 0 3 -8 5 -17 2 -10 0 -18 -4 -18 -4 0 -8
-10 -8 -22 -2 -28 -6 -45 -23 -83 -7 -16 -12 -34 -11 -38 1 -5 -2 -6 -7 -3 -5
3 -15 -6 -22 -20 -8 -13 -30 -36 -49 -51 -20 -15 -40 -33 -44 -40 -4 -7 -14
-13 -21 -13 -8 0 -16 -7 -20 -15 -5 -13 0 -17 20 -14 4 0 10 -3 13 -8 9 -13
49 -33 65 -33 8 0 16 -3 18 -7 4 -10 101 -59 106 -55 3 2 8 0 11 -5 10 -13 49
-33 66 -33 8 0 15 -4 15 -10 0 -5 6 -10 14 -10 8 0 22 -7 30 -16 9 -8 16 -13
16 -9 0 3 15 -2 33 -12 17 -9 35 -16 40 -15 4 1 7 -3 7 -8 0 -5 3 -9 8 -8 14
3 62 -22 62 -32 0 -5 3 -9 8 -8 11 3 106 -43 114 -56 4 -6 8 -8 8 -3 0 4 11 0
25 -9 14 -9 25 -13 25 -9 0 5 8 1 18 -8 10 -10 22 -14 25 -10 4 3 7 1 7 -5 0
-7 9 -12 21 -12 11 0 18 -4 14 -9 -10 -17 40 -2 53 16 6 9 12 14 12 10 0 -4
22 15 50 43 27 28 50 55 50 61 0 5 4 8 9 4 5 -3 12 4 16 15 3 11 16 28 28 37
12 10 23 25 25 33 2 8 11 23 19 33 9 9 12 17 8 17 -5 0 0 6 11 14 10 8 19 18
20 23 0 4 8 25 18 45 9 21 16 41 17 45 0 5 8 16 16 26 9 9 13 17 8 17 -4 0 -2
6 4 13 6 8 8 17 4 20 -3 4 -2 7 4 7 6 0 14 19 18 43 4 23 10 49 12 57 3 8 6
25 7 37 0 11 4 19 9 16 7 -4 8 8 10 70 1 15 4 27 7 27 4 0 6 15 5 33 0 17 4
35 10 39 6 5 6 8 0 8 -6 0 -10 32 -9 77 1 43 -3 84 -9 91 -6 8 -6 12 2 12 7 0
9 5 6 10 -4 6 -8 20 -11 33 -2 12 -6 32 -9 44 -3 13 -7 32 -9 43 -3 11 -7 23
-9 28 -3 4 -8 25 -11 46 -4 22 -12 46 -19 54 -6 8 -11 17 -10 18 4 9 -10 44
-18 44 -4 0 -6 9 -4 19 2 11 -3 22 -11 25 -8 3 -14 15 -14 26 0 11 -5 20 -11
20 -5 0 -7 5 -4 10 3 6 2 10 -3 10 -5 0 -12 10 -15 22 -7 26 20 76 46 84 10 3
16 8 13 11 -3 3 8 19 24 37 17 17 30 37 30 44 0 6 4 12 10 12 5 0 12 11 16 25
3 14 14 30 23 34 9 5 17 20 18 33 1 12 7 24 13 26 5 2 8 8 4 13 -3 5 0 9 5 9
6 0 11 9 11 20 0 11 4 20 8 20 5 0 9 6 9 13 2 20 27 81 38 89 6 5 5 8 -4 8
-11 0 -11 3 -1 15 6 8 9 18 6 24 -3 5 -2 11 4 13 5 1 11 12 13 23 1 11 7 26
11 34 7 10 5 12 -3 6 -8 -4 -6 5 4 25 12 23 13 30 3 24 -10 -6 -11 -5 -1 7 15
19 18 305 3 314 -8 5 -8 10 0 20 8 10 8 15 0 20 -6 4 -9 13 -6 21 3 8 1 14 -4
14 -6 0 -10 10 -10 23 0 13 -5 28 -12 35 -9 9 -9 12 1 12 10 0 11 3 2 13 -6 8
-8 17 -4 20 3 4 1 7 -5 7 -6 0 -14 20 -18 45 -3 25 -11 45 -16 45 -5 0 -6 5
-3 10 3 6 1 10 -4 10 -6 0 -11 9 -11 19 0 11 -5 23 -10 26 -6 4 -8 11 -5 16 4
5 2 9 -3 9 -8 0 -23 35 -21 49 1 2 -6 8 -15 13 -9 5 -16 16 -16 23 0 8 -3 15
-8 15 -4 0 -16 17 -27 37 -26 48 -190 212 -238 238 -20 11 -37 23 -37 27 0 5
-6 8 -14 8 -8 0 -17 7 -20 16 -4 9 -9 14 -13 10 -3 -3 -13 0 -22 7 -9 8 -32
20 -51 27 -19 8 -37 16 -40 20 -11 12 -66 33 -82 31 -10 -1 -18 2 -18 8 0 5
-9 8 -20 6 -11 -2 -22 0 -25 6 -4 5 -17 9 -31 9 -14 0 -23 3 -20 8 2 4 -11 7
-30 6 -19 -1 -34 2 -34 7 0 6 -6 9 -12 8 -7 -1 -30 -1 -51 0 -28 1 -36 4 -31
14 6 9 4 9 -8 -1 -10 -8 -19 -9 -22 -3 -7 10 -25 9 -43 -2 -7 -5 -13 -4 -13 1
0 10 -160 9 -177 -1 -6 -4 -14 -3 -17 2 -7 10 -25 9 -43 -2 -8 -5 -13 -3 -13
5 0 8 -3 9 -8 3 -9 -14 -237 -20 -228 -7 3 5 -6 8 -19 6 -28 -3 -101 23 -128
46 -43 35 -63 57 -74 80 -18 40 -26 64 -27 80 0 8 -5 18 -11 22 -6 5 -4 8 5 8
13 0 13 2 1 9 -10 7 -12 14 -5 23 5 7 9 25 8 41 0 15 2 27 6 27 4 0 11 16 14
35 4 20 11 33 17 30 5 -4 9 -2 9 4 0 5 14 23 31 40 17 17 27 31 24 31 -4 0 -2
6 4 14 11 13 4 20 -29 31 -12 4 -140 68 -190 95 -30 17 -61 30 -67 30 -7 0
-13 5 -13 10 0 6 -3 9 -7 8 -8 -1 -92 39 -163 77 -19 11 -38 19 -42 20 -4 0
-15 7 -25 15 -10 8 -27 16 -37 18 -9 2 -32 11 -50 21 -71 40 -101 55 -108 53
-5 -1 -8 3 -8 8 0 6 -3 9 -7 9 -20 -3 -34 2 -28 11 3 6 5 9 3 9 -2 -1 -10 -3
-18 -5z m650 -1894 c25 -2 59 -3 75 -4 17 0 33 -4 36 -9 4 -5 15 -5 27 2 11 6
23 7 26 3 9 -15 199 -14 208 1 4 6 8 8 8 2 0 -12 70 -13 88 -1 7 4 12 2 12 -5
0 -7 4 -8 13 -2 6 5 21 8 32 7 11 -1 52 -6 90 -9 39 -4 72 -11 73 -16 2 -5 8
-7 13 -3 5 3 9 0 9 -5 0 -6 7 -11 15 -11 8 0 15 -4 15 -10 0 -5 7 -10 15 -10
8 0 16 -4 16 -10 1 -5 2 -14 3 -20 0 -5 8 -15 18 -22 16 -13 43 -116 33 -126
-3 -3 1 -12 8 -20 7 -9 7 -13 1 -9 -7 4 -13 -10 -17 -43 -3 -27 -13 -61 -23
-74 -14 -22 -22 -25 -55 -22 -22 2 -42 6 -46 10 -3 3 -13 0 -21 -7 -12 -9 -14
-9 -9 0 9 15 -281 17 -299 2 -8 -7 -14 -6 -19 1 -3 6 -11 8 -16 4 -19 -11 -59
-11 -59 0 0 7 -3 8 -8 1 -5 -8 -127 -13 -127 -5 0 1 -16 4 -35 6 -39 6 -120
40 -120 52 0 4 -10 12 -21 17 -29 13 -79 107 -81 150 -1 19 -5 32 -11 28 -5
-3 -3 5 4 18 7 13 12 25 11 27 -1 1 -2 16 -2 33 0 20 4 28 12 23 8 -5 9 -2 5
9 -3 10 -2 17 3 17 6 0 10 7 10 15 0 16 32 37 40 26 3 -4 25 -9 50 -11z"/>
</g>
</svg>
